<svg viewBox="0 0 400 400" xmlns="http://www.w3.org/2000/svg">
  <!-- Body -->
  <path d="M50,200 Q100,150 200,200 L275,150 Q325,175 350,200 Q325,225 275,250 L200,300 Q100,250 50,200 Z" fill="#d4e157" stroke="black" stroke-width="3"/>
  
  <!-- Spikes on back -->
  <path d="M275,150 Q290,120 300,150 Q310,120 320,150 Q330,120 340,150 Q350,120 350,150" fill="#1b5e20" stroke="black" stroke-width="3"/>
  
  <!-- Face -->
  <circle cx="350" cy="200" r="50" fill="#fef9e7" stroke="black" stroke-width="3"/>
  
  <!-- Eyes -->
  <ellipse cx="330" cy="190" rx="10" ry="20" fill="black"/>
  <ellipse cx="370" cy="190" rx="10" ry="20" fill="black"/>
  
  <!-- White highlights in eyes -->
  <ellipse cx="333" cy="185" rx="3" ry="6" fill="white"/>
  <ellipse cx="373" cy="185" rx="3" ry="6" fill="white"/>
  
  <!-- Mouth -->
  <path d="M340,215 Q350,225 360,215" fill="none" stroke="black" stroke-width="2"/>
  
  <!-- Legs -->
  <path d="M100,250 L90,280" stroke="beige" stroke-width="10" stroke-linecap="round"/>
  <path d="M150,270 L140,300" stroke="beige" stroke-width="10" stroke-linecap="round"/>
  <path d="M200,280 L190,310" stroke="beige" stroke-width="10" stroke-linecap="round"/>
</svg>
